<?xml version="1.0" standalone="no"?>
<!DOCTYPE svg PUBLIC "-//W3C//DTD SVG 20010904//EN"
 "http://www.w3.org/TR/2001/REC-SVG-20010904/DTD/svg10.dtd">
<svg version="1.0" xmlns="http://www.w3.org/2000/svg"
 width="417.000000pt" height="356.000000pt" viewBox="0 0 417.000000 356.000000"
 preserveAspectRatio="xMidYMid meet">
<metadata>
Created by potrace 1.15, written by Peter Selinger 2001-2017
</metadata>
<g transform="translate(0.000000,356.000000) scale(0.100000,-0.100000)"
fill="#000000" stroke="none">
<path d="M1265 3553 c-11 -2 -66 -13 -123 -24 -277 -54 -544 -184 -730 -355
-205 -188 -335 -419 -388 -689 -26 -133 -24 -358 5 -495 49 -232 178 -530 230
-530 6 0 6 12 0 32 -45 159 -50 518 -9 722 57 287 190 572 370 791 63 76 221
233 285 281 92 71 229 156 323 202 74 37 97 53 89 61 -11 11 -17 12 -52 4z"/>
<path d="M3740 2726 c0 -2 14 -36 31 -77 48 -118 95 -283 120 -424 29 -166 31
-443 5 -607 -70 -443 -262 -810 -589 -1125 -93 -89 -234 -198 -338 -261 -80
-48 -260 -132 -362 -167 -61 -22 -106 -43 -104 -49 6 -17 206 -11 312 8 517
96 950 409 1169 842 84 168 126 292 163 479 21 112 24 432 5 545 -39 223 -117
436 -223 615 -71 118 -153 225 -174 225 -8 0 -15 -2 -15 -4z"/>
</g>
</svg>
